# xmcd CD database file
#
# Track frame offsets:
#	150
#	16297
#	34221
#	49343
#	71141
#	87905
#	109425
#	133020
#	151543
#	165937
#	181775
#
# Disc length: 2666 seconds
#
# Revision: 0
# Processed by: cddbd v1.5.2PL0 Copyright (c) Steve Scherf et al.
# Submitted via: CDex 1.51
#
DISCID=880a680b
DTITLE=Becky Middleton - No Trouble
DYEAR=2009
DGENRE=Country
TTITLE0=You Never Speak
TTITLE1=There's No You
TTITLE2=Abilene, Texas
TTITLE3=The Fool That You Need
TTITLE4=In The Letter
TTITLE5=Sadie
TTITLE6=The Haunting
TTITLE7=You're A Stone
TTITLE8=Lost My Heart
TTITLE9=Make Sure You're Alright
TTITLE10=No Kindness In A World
EXTD=YEAR: 2009
EXTT0=
EXTT1=
EXTT2=
EXTT3=
EXTT4=
EXTT5=
EXTT6=
EXTT7=
EXTT8=
EXTT9=
EXTT10=
PLAYORDER=
